<svg width="32" height="32" viewBox="0 0 32 32" fill="none" xmlns="http://www.w3.org/2000/svg">
<g filter="url(#filter0_d_233_70)">
<path d="M12.152 10.32H21.968V13.296H16.472V16.008H21.008V18.624H16.472V24H12.152V10.32Z" fill="#EA3A3A"/>
</g>
<path d="M32 16C32 24.8366 24.8366 32 16 32C7.16344 32 0 24.8366 0 16C0 7.16344 7.16344 0 16 0C24.8366 0 32 7.16344 32 16ZM3.2 16C3.2 23.0692 8.93076 28.8 16 28.8C23.0692 28.8 28.8 23.0692 28.8 16C28.8 8.93076 23.0692 3.2 16 3.2C8.93076 3.2 3.2 8.93076 3.2 16Z" fill="#EA3A3A"/>
<defs>
<filter id="filter0_d_233_70" x="8.15198" y="10.3201" width="17.816" height="21.6799" filterUnits="userSpaceOnUse" color-interpolation-filters="sRGB">
<feFlood flood-opacity="0" result="BackgroundImageFix"/>
<feColorMatrix in="SourceAlpha" type="matrix" values="0 0 0 0 0 0 0 0 0 0 0 0 0 0 0 0 0 0 127 0" result="hardAlpha"/>
<feOffset dy="4"/>
<feGaussianBlur stdDeviation="2"/>
<feComposite in2="hardAlpha" operator="out"/>
<feColorMatrix type="matrix" values="0 0 0 0 0 0 0 0 0 0 0 0 0 0 0 0 0 0 0.25 0"/>
<feBlend mode="normal" in2="BackgroundImageFix" result="effect1_dropShadow_233_70"/>
<feBlend mode="normal" in="SourceGraphic" in2="effect1_dropShadow_233_70" result="shape"/>
</filter>
</defs>
</svg>
